HIERARCHY
ROOT root
{
  OFFSET 0 95.9893 0
  CHANNELS 6 Xposition Yposition Zposition Zrotation Xrotation Yrotation
  JOINT torso_1
  {
    OFFSET 0 5.22546 -1.18466
    CHANNELS 6 Xposition Yposition Zposition Zrotation Xrotation Yrotation
    JOINT torso_2
    {
      OFFSET 0 5.77894 1.10239
      CHANNELS 6 Xposition Yposition Zposition Zrotation Xrotation Yrotation
      JOINT torso_3
      {
        OFFSET -1.0557e-17 6.16289 0.118334
        CHANNELS 6 Xposition Yposition Zposition Zrotation Xrotation Yrotation
        JOINT torso_4
        {
          OFFSET -1.13649e-17 6.69386 -0.456341
          CHANNELS 6 Xposition Yposition Zposition Zrotation Xrotation Yrotation
          JOINT torso_5
          {
            OFFSET -2.02997e-17 7.82529 -1.54945
            CHANNELS 6 Xposition Yposition Zposition Zrotation Xrotation Yrotation
            JOINT torso_6
            {
              OFFSET -2.60628e-17 9.77186 -0.940923
              CHANNELS 6 Xposition Yposition Zposition Zrotation Xrotation Yrotation
              JOINT torso_7
              {
                OFFSET -2.98794e-17 10.8563 1.62248
                CHANNELS 6 Xposition Yposition Zposition Zrotation Xrotation Yrotation
                JOINT neck_1
                {
                  OFFSET -1.32927e-17 4.92478 0.736013
                  CHANNELS 6 Xposition Yposition Zposition Zrotation Xrotation Yrotation
                  JOINT neck_2
                  {
                    OFFSET -1.86396e-17 4.96043 0.433981
                    CHANNELS 6 Xposition Yposition Zposition Zrotation Xrotation Yrotation
                    JOINT head
                    {
                      OFFSET -2.06766e-17 4.97002 0.787173
                      CHANNELS 6 Xposition Yposition Zposition Zrotation Xrotation Yrotation
                      End Site
                      {
                        OFFSET 0 0.1 0
                      }
                    }
                  }
                }
                JOINT l_shoulder
                {
                  OFFSET 1.26863 -7.82717 7.75148
                  CHANNELS 6 Xposition Yposition Zposition Zrotation Xrotation Yrotation
                  JOINT l_up_arm
                  {
                    OFFSET 13.3291 3.34342 -3.36319
                    CHANNELS 6 Xposition Yposition Zposition Zrotation Xrotation Yrotation
                    JOINT l_low_arm
                    {
                      OFFSET 30.0522 0.0615366 0.141
                      CHANNELS 6 Xposition Yposition Zposition Zrotation Xrotation Yrotation
                      JOINT l_hand
                      {
                        OFFSET 24.9344 0.0510561 0.116988
                        CHANNELS 6 Xposition Yposition Zposition Zrotation Xrotation Yrotation
                        End Site
                        {
                          OFFSET 0.1 0 0
                        }
                      }
                    }
                  }
                }
                JOINT r_shoulder
                {
                  OFFSET -1.26863 -7.82715 7.75138
                  CHANNELS 6 Xposition Yposition Zposition Zrotation Xrotation Yrotation
                  JOINT r_up_arm
                  {
                    OFFSET -13.3291 3.34342 -3.36319
                    CHANNELS 6 Xposition Yposition Zposition Zrotation Xrotation Yrotation
                    JOINT r_low_arm
                    {
                      OFFSET -30.0522 0.0615366 0.141
                      CHANNELS 6 Xposition Yposition Zposition Zrotation Xrotation Yrotation
                      JOINT r_hand
                      {
                        OFFSET -24.9344 0.0510559 0.116988
                        CHANNELS 6 Xposition Yposition Zposition Zrotation Xrotation Yrotation
                        End Site
                        {
                          OFFSET -0.1 0 0
                        }
                      }
                    }
                  }
                }
              }
            }
          }
        }
      }
    }
  }
  JOINT l_up_leg
  {
    OFFSET 9.50369 -4.32711 2.09145
    CHANNELS 6 Xposition Yposition Zposition Zrotation Xrotation Yrotation
    JOINT l_low_leg
    {
      OFFSET -0.876987 -39.8926 -0.674123
      CHANNELS 6 Xposition Yposition Zposition Zrotation Xrotation Yrotation
      JOINT l_foot
      {
        OFFSET -2.39345 -41.5694 -6.22357
        CHANNELS 6 Xposition Yposition Zposition Zrotation Xrotation Yrotation
        JOINT l_toes
        {
          OFFSET 0.801613 -10.1701 12.8571
          CHANNELS 6 Xposition Yposition Zposition Zrotation Xrotation Yrotation
          End Site
          {
            OFFSET 0 0 0.1
          }
        }
      }
    }
  }
  JOINT r_up_leg
  {
    OFFSET -9.50369 -4.32711 2.09145
    CHANNELS 6 Xposition Yposition Zposition Zrotation Xrotation Yrotation
    JOINT r_low_leg
    {
      OFFSET 0.876987 -39.8926 -0.674123
      CHANNELS 6 Xposition Yposition Zposition Zrotation Xrotation Yrotation
      JOINT r_foot
      {
        OFFSET 2.39345 -41.5694 -6.22357
        CHANNELS 6 Xposition Yposition Zposition Zrotation Xrotation Yrotation
        JOINT r_toes
        {
          OFFSET -0.801613 -10.1701 12.8571
          CHANNELS 6 Xposition Yposition Zposition Zrotation Xrotation Yrotation
          End Site
          {
            OFFSET 0 0 0.1
          }
        }
      }
    }
  }
}
MOTION
Frames: 8
Frame Time: 0.02
31.1045 93.5842 -59.2089 6.62221 -10.335 -20.6218 0 5.22546 -1.18466 -3.88686 -0.594234 0.504641 0 5.77894 1.10239 -3.57313 0.207598 0.0703258 -1.0557e-17 6.16289 0.118334 -2.86866 0.839203 0.0784062 -1.13649e-17 6.69386 -0.456341 -2.15338 1.7965 0.0596833 -2.02997e-17 7.82529 -1.54945 -1.24872 1.73509 0.341757 -2.60628e-17 9.77186 -0.940923 -0.319646 1.5803 0.430791 -2.98794e-17 10.8563 1.62248 -0.00159239 0.117724 -0.0146501 -1.32927e-17 4.92478 0.736013 -3.17644 -6.93451 -10.5016 -1.86396e-17 4.96043 0.433981 -3.449 -0.422223 -4.89584 -2.06766e-17 4.97002 0.787173 -6.06296 3.98333 -4.50194 1.26863 -7.82717 7.75148 2.27531 3.88587 -3.89532 13.3291 3.34342 -3.36319 -46.792 71.0237 -35.4343 30.0522 0.0615366 0.141 7.74352 -2.80884 -40.419 24.9344 0.0510561 0.116988 5.29754 6.85248 -1.9372 -1.26863 -7.82715 7.75138 3.34264 1.25395 6.29103 -13.3291 3.34342 -3.36319 74.5051 23.3027 3.17518 -30.0522 0.0615366 0.141 -11.4638 -15.5429 107.926 -24.9344 0.0510559 0.116988 6.34316 -57.0388 10.1537 9.50369 -4.32711 2.09145 -12.8798 8.64894 -22.5719 -0.876987 -39.8926 -0.674123 0.99066 -3.68308 0.0961776 -2.39345 -41.5694 -6.22357 0.71893 0.501601 15.0213 0.801613 -10.1701 12.8571 -3.47873e-16 -8.07563e-16 2.48481e-17 -9.50369 -4.32711 2.09145 -25.3903 0.221626 24.2812 0.876987 -39.8926 -0.674123 3.02465 11.2136 -0.100593 2.39345 -41.5694 -6.22357 7.63812 -6.27284 -16.6015 -0.801613 -10.1701 12.8571 -9.93923e-16 -5.46658e-16 -1.27222e-14 
31.1214 93.5769 -59.1719 6.63107 -10.2909 -20.4415 0 5.22546 -1.18466 -3.87555 -0.57627 0.490466 0 5.77894 1.10239 -3.56233 0.215591 0.0567891 -1.0557e-17 6.16289 0.118334 -2.85956 0.837158 0.0642886 -1.13649e-17 6.69386 -0.456341 -2.14523 1.77778 0.0450228 -2.02997e-17 7.82529 -1.54945 -1.24467 1.70737 0.325681 -2.60628e-17 9.77186 -0.940923 -0.323401 1.54931 0.414965 -2.98794e-17 10.8563 1.62248 -0.00168247 0.117755 -0.0146788 -1.32927e-17 4.92478 0.736013 -3.17385 -6.84696 -10.5552 -1.86396e-17 4.96043 0.433981 -3.48196 -0.410551 -4.92146 -2.06766e-17 4.97002 0.787173 -6.07962 3.95877 -4.4947 1.26863 -7.82717 7.75148 2.26636 3.89292 -3.88328 13.3291 3.34342 -3.36319 -47.1044 71.0536 -35.1768 30.0522 0.0615366 0.141 7.73938 -2.80536 -40.3931 24.9344 0.0510561 0.116988 5.30239 6.90614 -1.92816 -1.26863 -7.82715 7.75138 3.28292 1.24267 6.27805 -13.3291 3.34342 -3.36319 74.5011 23.2468 3.15148 -30.0522 0.0615366 0.141 -11.4655 -15.5379 107.9 -24.9344 0.0510559 0.116988 6.36738 -57.1508 10.198 9.50369 -4.32711 2.09145 -12.8878 8.62096 -22.6032 -0.876987 -39.8926 -0.674123 0.973896 -3.62107 0.0940269 -2.39345 -41.5694 -6.22357 0.823078 0.462179 15.0095 0.801613 -10.1701 12.8571 -7.45443e-16 -8.32411e-16 4.96962e-17 -9.50369 -4.32711 2.09145 -25.405 0.256351 24.0985 0.876987 -39.8926 -0.674123 3.03941 11.2673 -0.102533 2.39345 -41.5694 -6.22357 7.6312 -6.24505 -16.5913 -0.801613 -10.1701 12.8571 -5.96354e-16 -5.59082e-16 -1.27471e-14 
31.1404 93.5682 -59.1364 6.6398 -10.2467 -20.2612 0 5.22546 -1.18466 -3.86662 -0.551906 0.475774 0 5.77894 1.10239 -3.55311 0.227608 0.0421814 -1.0557e-17 6.16289 0.118334 -2.85132 0.837666 0.0490084 -1.13649e-17 6.69386 -0.456341 -2.13713 1.75915 0.0291545 -2.02997e-17 7.82529 -1.54945 -1.24014 1.67816 0.308362 -2.60628e-17 9.77186 -0.940923 -0.32636 1.51648 0.397485 -2.98794e-17 10.8563 1.62248 -0.00177001 0.117773 -0.014739 -1.32927e-17 4.92478 0.736013 -3.16577 -6.73961 -10.607 -1.86396e-17 4.96043 0.433981 -3.5113 -0.407255 -4.94609 -2.06766e-17 4.97002 0.787173 -6.09566 3.91909 -4.48376 1.26863 -7.82717 7.75148 2.27439 3.8956 -3.8651 13.3291 3.34342 -3.36319 -47.4337 71.082 -34.9032 30.0522 0.0615366 0.141 7.73567 -2.80224 -40.37 24.9344 0.0510561 0.116988 5.30562 6.95333 -1.92649 -1.26863 -7.82715 7.75138 3.20885 1.22732 6.26088 -13.3291 3.34342 -3.36319 74.5126 23.212 3.13607 -30.0522 0.0615366 0.141 -11.4674 -15.532 107.87 -24.9344 0.0510559 0.116988 6.39409 -57.2491 10.2364 9.50369 -4.32711 2.09145 -12.8945 8.59799 -22.6131 -0.876987 -39.8926 -0.674123 0.959609 -3.56821 0.092208 -2.39345 -41.5694 -6.22357 0.915026 0.417667 14.9983 0.801613 -10.1701 12.8571 4.47266e-16 -7.82715e-16 3.05504e-33 -9.50369 -4.32711 2.09145 -25.4217 0.292808 23.9252 0.876987 -39.8926 -0.674123 3.05309 11.317 -0.104344 2.39345 -41.5694 -6.22357 7.62817 -6.21964 -16.5795 -0.801613 -10.1701 12.8571 -1.98785e-16 -5.8393e-16 -1.27595e-14 
31.1626 93.5589 -59.1031 6.64838 -10.2026 -20.081 0 5.22546 -1.18466 -3.85786 -0.527206 0.462331 0 5.77894 1.10239 -3.54393 0.240526 0.0289168 -1.0557e-17 6.16289 0.118334 -2.84297 0.839612 0.0351621 -1.13649e-17 6.69386 -0.456341 -2.1288 1.74315 0.0148114 -2.02997e-17 7.82529 -1.54945 -1.2351 1.65183 0.292544 -2.60628e-17 9.77186 -0.940923 -0.328065 1.4863 0.381353 -2.98794e-17 10.8563 1.62248 -0.00180925 0.117762 -0.0147868 -1.32927e-17 4.92478 0.736013 -3.15366 -6.62458 -10.6535 -1.86396e-17 4.96043 0.433981 -3.53087 -0.403007 -4.96805 -2.06766e-17 4.97002 0.787173 -6.10791 3.87475 -4.47543 1.26863 -7.82717 7.75148 2.28689 3.89637 -3.8473 13.3291 3.34342 -3.36319 -47.6998 71.1191 -34.6877 30.0522 0.0615366 0.141 7.73264 -2.79969 -40.351 24.9344 0.0510561 0.116988 5.31633 6.98102 -1.93056 -1.26863 -7.82715 7.75138 3.13214 1.20944 6.24283 -13.3291 3.34342 -3.36319 74.5264 23.1885 3.12289 -30.0522 0.0615366 0.141 -11.4687 -15.5281 107.85 -24.9344 0.0510559 0.116988 6.41737 -57.3436 10.2747 9.50369 -4.32711 2.09145 -12.8998 8.57826 -22.6377 -0.876987 -39.8926 -0.674123 0.948101 -3.52562 0.0907524 -2.39345 -41.5694 -6.22357 1.00244 0.374391 14.988 0.801613 -10.1701 12.8571 4.96962e-17 -7.95139e-16 1.2424e-17 -9.50369 -4.32711 2.09145 -25.4436 0.343983 23.7443 0.876987 -39.8926 -0.674123 3.05867 11.3372 -0.105086 2.39345 -41.5694 -6.22357 7.63051 -6.1958 -16.5668 -0.801613 -10.1701 12.8571 -1.39149e-15 -5.34234e-16 -1.27098e-14 
31.1896 93.5516 -59.0693 6.66834 -10.1681 -19.8912 0 5.22546 -1.18466 -3.85375 -0.502995 0.449695 0 5.77894 1.10239 -3.53911 0.253939 0.0157839 -1.0557e-17 6.16289 0.118334 -2.83836 0.842583 0.0213965 -1.13649e-17 6.69386 -0.456341 -2.12358 1.72952 0.000446883 -2.02997e-17 7.82529 -1.54945 -1.23256 1.62781 0.277152 -2.60628e-17 9.77186 -0.940923 -0.331185 1.45823 0.366191 -2.98794e-17 10.8563 1.62248 -0.00186072 0.117679 -0.0148276 -1.32927e-17 4.92478 0.736013 -3.14282 -6.52138 -10.6918 -1.86396e-17 4.96043 0.433981 -3.5487 -0.394116 -4.9866 -2.06766e-17 4.97002 0.787173 -6.11322 3.84024 -4.46945 1.26863 -7.82717 7.75148 2.29728 3.89565 -3.83362 13.3291 3.34342 -3.36319 -47.9485 71.1553 -34.4774 30.0522 0.0615366 0.141 7.73049 -2.79788 -40.3376 24.9344 0.0510561 0.116988 5.33067 7.01436 -1.93772 -1.26863 -7.82715 7.75138 3.06083 1.19068 6.2303 -13.3291 3.34342 -3.36319 74.5409 23.1526 3.10651 -30.0522 0.0615366 0.141 -11.4698 -15.5247 107.832 -24.9344 0.0510559 0.116988 6.43515 -57.4357 10.3073 9.50369 -4.32711 2.09145 -12.9149 8.56475 -22.709 -0.876987 -39.8926 -0.674123 0.938898 -3.49156 0.0895944 -2.39345 -41.5694 -6.22357 1.06162 0.346483 14.9804 0.801613 -10.1701 12.8571 4.47266e-16 -7.82715e-16 3.05504e-33 -9.50369 -4.32711 2.09145 -25.4842 0.410635 23.5451 0.876987 -39.8926 -0.674123 3.06037 11.3434 -0.105312 2.39345 -41.5694 -6.22357 7.62928 -6.16423 -16.5561 -0.801613 -10.1701 12.8571 -1.39149e-15 -5.34234e-16 -1.27098e-14 
31.2221 93.5461 -59.034 6.6859 -10.1345 -19.7105 0 5.22546 -1.18466 -3.85127 -0.47391 0.438767 0 5.77894 1.10239 -3.5364 0.270594 0.0043467 -1.0557e-17 6.16289 0.118334 -2.83563 0.846807 0.00946262 -1.13649e-17 6.69386 -0.456341 -2.12016 1.7139 -0.0119168 -2.02997e-17 7.82529 -1.54945 -1.23096 1.59948 0.264135 -2.60628e-17 9.77186 -0.940923 -0.333966 1.42375 0.353737 -2.98794e-17 10.8563 1.62248 -0.00188091 0.117664 -0.0148448 -1.32927e-17 4.92478 0.736013 -3.12867 -6.43054 -10.7113 -1.86396e-17 4.96043 0.433981 -3.56188 -0.383471 -4.9962 -2.06766e-17 4.97002 0.787173 -6.1158 3.82242 -4.47718 1.26863 -7.82717 7.75148 2.3011 3.89861 -3.82323 13.3291 3.34342 -3.36319 -48.1902 71.1932 -34.2511 30.0522 0.0615366 0.141 7.73025 -2.79768 -40.3361 24.9344 0.0510561 0.116988 5.34527 7.05438 -1.95199 -1.26863 -7.82715 7.75138 2.99493 1.17551 6.21952 -13.3291 3.34342 -3.36319 74.5599 23.1073 3.07729 -30.0522 0.0615366 0.141 -11.4709 -15.5212 107.815 -24.9344 0.0510559 0.116988 6.4517 -57.5208 10.3382 9.50369 -4.32711 2.09145 -12.935 8.54527 -22.7638 -0.876987 -39.8926 -0.674123 0.926634 -3.44616 0.0880596 -2.39345 -41.5694 -6.22357 1.12769 0.324187 14.9719 0.801613 -10.1701 12.8571 -7.45443e-16 -8.32411e-16 4.96962e-17 -9.50369 -4.32711 2.09145 -25.5308 0.489849 23.3243 0.876987 -39.8926 -0.674123 3.05415 11.3208 -0.104484 2.39345 -41.5694 -6.22357 7.63755 -6.1219 -16.5464 -0.801613 -10.1701 12.8571 -2.18663e-15 -4.96962e-16 -1.26725e-14 
31.2613 93.5423 -58.9982 6.69293 -10.1099 -19.5289 0 5.22546 -1.18466 -3.8476 -0.438286 0.427955 0 5.77894 1.10239 -3.53285 0.291852 -0.00672115 -1.0557e-17 6.16289 0.118334 -2.83235 0.854022 -0.00199403 -1.13649e-17 6.69386 -0.456341 -2.11651 1.69868 -0.0236584 -2.02997e-17 7.82529 -1.54945 -1.22931 1.56955 0.251804 -2.60628e-17 9.77186 -0.940923 -0.336784 1.38675 0.34202 -2.98794e-17 10.8563 1.62248 -0.00187436 0.117703 -0.0148565 -1.32927e-17 4.92478 0.736013 -3.10987 -6.33982 -10.7146 -1.86396e-17 4.96043 0.433981 -3.57424 -0.370253 -4.99844 -2.06766e-17 4.97002 0.787173 -6.11501 3.81022 -4.48913 1.26863 -7.82717 7.75148 2.30368 3.90242 -3.81529 13.3291 3.34342 -3.36319 -48.4348 71.2305 -34.0193 30.0522 0.0615366 0.141 7.73125 -2.79853 -40.3424 24.9344 0.0510561 0.116988 5.35036 7.09024 -1.94753 -1.26863 -7.82715 7.75138 2.9282 1.16147 6.20842 -13.3291 3.34342 -3.36319 74.5688 23.0646 3.04576 -30.0522 0.0615366 0.141 -11.4727 -15.5159 107.787 -24.9344 0.0510559 0.116988 6.46999 -57.6141 10.3663 9.50369 -4.32711 2.09145 -12.9559 8.52645 -22.7894 -0.876987 -39.8926 -0.674123 0.909059 -3.38109 0.0858768 -2.39345 -41.5694 -6.22357 1.20741 0.304623 14.9604 0.801613 -10.1701 12.8571 -7.45443e-16 -8.32411e-16 4.96962e-17 -9.50369 -4.32711 2.09145 -25.5769 0.588501 23.1003 0.876987 -39.8926 -0.674123 3.04275 11.2794 -0.102975 2.39345 -41.5694 -6.22357 7.66009 -6.06208 -16.5375 -0.801613 -10.1701 12.8571 -2.5842e-15 -4.84538e-16 -1.26601e-14 
31.3057 93.5378 -58.9627 6.70964 -10.057 -19.3606 0 5.22546 -1.18466 -3.84381 -0.410285 0.418437 0 5.77894 1.10239 -3.5289 0.30794 -0.0162806 -1.0557e-17 6.16289 0.118334 -2.82831 0.858724 -0.0118737 -1.13649e-17 6.69386 -0.456341 -2.11193 1.68486 -0.0337242 -2.02997e-17 7.82529 -1.54945 -1.22617 1.54411 0.240966 -2.60628e-17 9.77186 -0.940923 -0.337359 1.35544 0.331161 -2.98794e-17 10.8563 1.62248 -0.00182707 0.117734 -0.0148692 -1.32927e-17 4.92478 0.736013 -3.08949 -6.25868 -10.7087 -1.86396e-17 4.96043 0.433981 -3.58082 -0.369242 -4.99578 -2.06766e-17 4.97002 0.787173 -6.1104 3.78388 -4.50869 1.26863 -7.82717 7.75148 2.30672 3.90599 -3.80262 13.3291 3.34342 -3.36319 -48.6253 71.2648 -33.8424 30.0522 0.0615366 0.141 7.73351 -2.80042 -40.3565 24.9344 0.0510561 0.116988 5.36319 7.12392 -1.94365 -1.26863 -7.82715 7.75138 2.8633 1.14689 6.19315 -13.3291 3.34342 -3.36319 74.5805 23.0394 3.02805 -30.0522 0.0615366 0.141 -11.4736 -15.5131 107.773 -24.9344 0.0510559 0.116988 6.48201 -57.6792 10.3892 9.50369 -4.32711 2.09145 -12.9797 8.48993 -22.7815 -0.876987 -39.8926 -0.674123 0.898244 -3.34104 0.0845434 -2.39345 -41.5694 -6.22357 1.28377 0.287773 14.9493 0.801613 -10.1701 12.8571 1.2424e-15 -7.45443e-16 -3.72721e-17 -9.50369 -4.32711 2.09145 -25.6244 0.659059 22.9108 0.876987 -39.8926 -0.674123 3.02729 11.2232 -0.100939 2.39345 -41.5694 -6.22357 7.69037 -6.00877 -16.5306 -0.801613 -10.1701 12.8571 9.93923e-16 -6.33626e-16 -1.28092e-14 
